<?xml version="1.0" encoding="UTF-8"?>
<svg xmlns="http://www.w3.org/2000/svg" xmlns:xlink="http://www.w3.org/1999/xlink" width="457.58pt" height="173.85pt" viewBox="0 0 457.58 173.85" version="1.1">
<g id="surface1">
<path style=" stroke:none;fill-rule:evenodd;fill:rgb(13.299561%,19.198608%,23.899841%);fill-opacity:1;" d="M 51.351563 120.53125 C 51.351563 122.015625 51.710938 122.378906 53.183594 122.386719 L 63.066406 122.386719 C 64.535156 122.378906 64.902344 122.035156 64.902344 120.582031 L 64.902344 53.265625 C 64.902344 51.953125 64.519531 51.566406 63.226563 51.566406 C 59.929688 51.566406 56.640625 51.566406 53.34375 51.566406 C 51.636719 51.566406 51.351563 51.851563 51.351563 53.585938 C 51.351563 53.585938 51.351563 109.3125 51.351563 120.53125 "/>
<path style=" stroke:none;fill-rule:evenodd;fill:rgb(93.299866%,15.299988%,31.799316%);fill-opacity:1;" d="M 373.945313 110.285156 C 378.199219 110.785156 382.378906 111.222656 386.574219 110.578125 C 388.828125 110.230469 390.65625 109.109375 391.488281 106.867188 C 391.890625 105.761719 392.222656 104.578125 392.261719 103.410156 C 392.414063 99.414063 392.449219 95.441406 392.425781 91.449219 C 392.425781 90.273438 392.222656 89.082031 391.964844 87.929688 C 391.144531 84.308594 389.300781 82.65625 385.574219 82.472656 C 381.828125 82.285156 378.082031 82.320313 374.328125 82.269531 C 374.214844 82.269531 374.105469 82.320313 373.945313 82.351563 Z M 373.914063 70.90625 C 376.652344 70.777344 379.214844 70.605469 381.808594 70.535156 C 385.449219 70.4375 389.109375 70.4375 392.75 71.054688 C 399.429688 72.195313 403.398438 75.929688 404.929688 82.550781 C 405.722656 85.957031 406.058594 89.40625 406.144531 92.882813 C 406.308594 98.234375 406.308594 103.601563 405.273438 108.910156 C 404.574219 112.554688 403.324219 115.9375 400.371094 118.441406 C 398.183594 120.304688 395.558594 121.210938 392.789063 121.777344 C 389.148438 122.515625 385.449219 122.710938 381.78125 122.558594 C 377.425781 122.410156 373.085938 122.101563 368.730469 121.753906 C 366.554688 121.585938 364.398438 121.179688 362.238281 120.855469 C 361.085938 120.679688 360.578125 120.078125 360.425781 118.886719 C 360.378906 118.53125 360.351563 118.15625 360.351563 117.800781 C 360.339844 96.484375 360.339844 75.167969 360.339844 53.84375 C 360.339844 53.605469 360.339844 53.363281 360.351563 53.105469 C 360.425781 51.605469 360.691406 51.347656 362.238281 51.347656 L 371.9375 51.347656 C 373.636719 51.347656 373.894531 51.589844 373.914063 53.289063 C 373.914063 58.765625 373.914063 64.265625 373.914063 69.757813 L 373.914063 70.90625 "/>
<path style=" stroke:none;fill-rule:evenodd;fill:rgb(13.299561%,19.198608%,23.899841%);fill-opacity:1;" d="M 204.539063 101.027344 C 200.296875 101.027344 196.097656 100.890625 191.90625 101.054688 C 189.367188 101.15625 188.105469 102.515625 187.78125 104.996094 C 187.636719 105.976563 187.730469 107.015625 187.851563 108.003906 C 188.105469 109.910156 189.246094 111.085938 191.113281 111.453125 C 192.449219 111.703125 193.816406 111.839844 195.183594 111.863281 C 198.320313 111.929688 201.449219 111.726563 204.539063 110.980469 Z M 204.464844 92.054688 C 204.464844 90.367188 204.652344 88.773438 204.4375 87.21875 C 204.066406 84.699219 202.117188 83.09375 199.25 82.730469 C 197.957031 82.570313 196.652344 82.472656 195.347656 82.472656 C 190.34375 82.449219 185.335938 82.464844 180.34375 82.464844 C 178.238281 82.464844 178.160156 82.375 178.160156 80.320313 C 178.160156 78.097656 178.191406 75.882813 178.152344 73.652344 C 178.140625 72.703125 178.5625 72.269531 179.457031 72.105469 C 187.054688 70.695313 194.714844 70.4375 202.390625 71.046875 C 205.589844 71.296875 208.699219 71.960938 211.601563 73.441406 C 215.3125 75.339844 217.292969 78.449219 217.847656 82.515625 C 218.0625 84.035156 218.140625 85.605469 218.140625 87.15625 C 218.160156 97.179688 218.148438 107.222656 218.148438 117.242188 C 218.148438 117.445313 218.148438 117.621094 218.144531 117.800781 C 218.085938 120.0625 217.386719 120.722656 215.160156 121.171875 C 208.679688 122.441406 202.132813 122.839844 195.519531 122.886719 C 191.796875 122.902344 188.027344 122.839844 184.339844 122.085938 C 179.175781 121.03125 175.882813 118.078125 174.84375 112.804688 C 174.03125 108.683594 173.96875 104.585938 175.195313 100.515625 C 176.460938 96.316406 179.441406 93.90625 183.585938 93.019531 C 186.117188 92.46875 188.769531 92.203125 191.367188 92.09375 C 195.414063 91.949219 199.472656 92.0625 203.535156 92.054688 L 204.464844 92.054688 "/>
<path style=" stroke:none;fill-rule:evenodd;fill:rgb(13.299561%,19.198608%,23.899841%);fill-opacity:1;" d="M 147.882813 82.5625 C 145.640625 82.644531 143.511719 83.183594 142.15625 85.210938 C 141.15625 86.652344 140.816406 88.34375 140.664063 90.042969 C 140.265625 94.546875 140.234375 99.050781 140.675781 103.546875 C 140.867188 105.53125 141.253906 107.5 142.683594 109.019531 C 144.09375 110.578125 146.011719 111.027344 147.976563 111.0625 C 153.214844 111.167969 158.453125 111.136719 163.703125 111.183594 C 164.011719 111.183594 164.328125 111.179688 164.613281 111.183594 C 166.203125 111.222656 166.527344 111.558594 166.542969 113.144531 C 166.554688 115.242188 166.554688 117.355469 166.535156 119.453125 C 166.519531 120.984375 166.089844 121.421875 164.601563 121.695313 C 158.363281 122.855469 152.066406 123.058594 145.753906 122.78125 C 141.976563 122.589844 138.226563 122.167969 134.777344 120.441406 C 131.945313 119.015625 130.054688 116.773438 128.90625 113.855469 C 127.523438 110.285156 127.03125 106.535156 126.992188 102.777344 C 126.9375 97.414063 127.054688 92.039063 127.328125 86.703125 C 127.480469 83.785156 128.214844 80.933594 129.574219 78.300781 C 131.035156 75.441406 133.355469 73.597656 136.3125 72.480469 C 139.289063 71.367188 142.402344 70.996094 145.535156 70.859375 C 150.867188 70.605469 156.1875 70.730469 161.496094 71.386719 C 162.6875 71.53125 163.84375 71.730469 165.015625 71.9375 C 165.929688 72.089844 166.492188 72.617188 166.5 73.605469 C 166.511719 76.058594 166.527344 78.535156 166.511719 81.007813 C 166.511719 81.921875 166 82.414063 165.085938 82.414063 L 156.207031 82.414063 C 156.207031 82.414063 150.664063 82.464844 147.882813 82.5625 "/>
<path style=" stroke:none;fill-rule:evenodd;fill:rgb(93.299866%,15.299988%,31.799316%);fill-opacity:1;" d="M 338.832031 92.304688 C 338.558594 90.351563 338.390625 88.507813 337.984375 86.703125 C 337.566406 84.816406 336.363281 83.40625 334.460938 82.839844 C 331.324219 81.890625 328.160156 81.964844 325.019531 82.824219 C 323.851563 83.144531 322.859375 83.828125 322.183594 84.84375 C 320.691406 87.113281 320.636719 89.679688 320.59375 92.304688 Z M 320.472656 101.214844 C 320.78125 103.085938 320.925781 104.777344 321.335938 106.4375 C 321.992188 109.109375 323.972656 110.328125 326.574219 110.609375 C 328.304688 110.804688 330.046875 110.886719 331.777344 110.890625 C 336.6875 110.925781 341.578125 110.898438 346.507813 110.898438 C 348.289063 110.898438 348.566406 111.179688 348.566406 112.972656 C 348.566406 115.136719 348.578125 117.296875 348.566406 119.472656 C 348.554688 120.902344 348.28125 121.179688 346.855469 121.421875 C 339.757813 122.667969 332.613281 122.734375 325.445313 122.480469 C 322.34375 122.378906 319.257813 121.925781 316.34375 120.78125 C 311.855469 119.023438 309.394531 115.53125 308.21875 111.027344 C 307.359375 107.808594 306.964844 104.503906 306.964844 101.183594 C 306.964844 96.433594 307.066406 91.679688 307.324219 86.933594 C 307.488281 84.179688 308.152344 81.46875 309.304688 78.925781 C 311.195313 74.769531 314.554688 72.464844 318.878906 71.488281 C 324.882813 70.171875 330.976563 70.1875 337.046875 70.914063 C 339.109375 71.148438 341.179688 71.644531 343.140625 72.363281 C 347.351563 73.917969 349.636719 77.28125 350.828125 81.46875 C 351.851563 85.097656 352.097656 88.832031 352.269531 92.574219 C 352.339844 94.71875 352.308594 96.847656 352.296875 98.976563 C 352.28125 100.453125 351.726563 101.027344 350.277344 101.140625 C 349.644531 101.191406 349.007813 101.214844 348.367188 101.214844 C 339.546875 101.214844 330.734375 101.214844 321.925781 101.214844 L 320.472656 101.214844 "/>
<path style=" stroke:none;fill-rule:evenodd;fill:rgb(13.299561%,19.198608%,23.899841%);fill-opacity:1;" d="M 105.726563 98.652344 C 105.558594 100.765625 105.421875 103.03125 105.046875 105.257813 C 104.449219 108.808594 102.800781 110.292969 99.203125 110.886719 C 96.820313 111.273438 94.394531 111.257813 92.023438 110.796875 C 88.976563 110.207031 87.363281 108.40625 86.789063 105.128906 C 86.050781 100.933594 86.125 96.703125 86.328125 92.46875 C 86.394531 91.21875 86.542969 89.980469 86.742188 88.75 C 87.410156 84.773438 89 83.046875 93.03125 82.601563 C 95.292969 82.351563 97.679688 82.421875 99.933594 82.773438 C 103.109375 83.269531 104.761719 85.304688 105.230469 88.984375 C 105.507813 91.214844 105.605469 93.464844 105.769531 95.90625 Z M 119.199219 94.050781 C 119.132813 90.195313 118.914063 86.136719 117.867188 82.15625 C 116.722656 77.796875 114.367188 74.414063 110.074219 72.648438 C 107.683594 71.660156 105.132813 71.117188 102.550781 70.988281 C 98.984375 70.835938 95.421875 70.753906 91.859375 70.8125 C 88.660156 70.867188 85.496094 71.3125 82.460938 72.414063 C 79.394531 73.523438 77.003906 75.441406 75.472656 78.351563 C 73.71875 81.679688 73.089844 85.304688 72.890625 88.992188 C 72.683594 93.21875 72.597656 97.464844 72.746094 101.691406 C 72.835938 104.648438 73.289063 107.613281 73.832031 110.542969 C 74.324219 113.324219 75.484375 115.890625 77.484375 117.964844 C 80.027344 120.582031 83.304688 121.640625 86.789063 122.199219 C 91.28125 122.945313 95.828125 122.929688 100.367188 122.710938 C 103.433594 122.582031 106.492188 122.191406 109.390625 121.105469 C 111.722656 120.265625 113.71875 118.929688 115.242188 116.929688 C 116.894531 114.765625 117.71875 112.269531 118.253906 109.679688 C 119.007813 106.0625 119.164063 102.433594 119.210938 98.554688 L 119.199219 94.050781 "/>
<path style=" stroke:none;fill-rule:nonzero;fill:rgb(13.299561%,19.198608%,23.899841%);fill-opacity:1;" d="M 237.984375 72.761719 C 237.714844 71.679688 237.539063 71.210938 236.636719 71.15625 C 236.601563 71.152344 236.558594 71.152344 236.523438 71.152344 C 236.480469 71.152344 236.417969 71.152344 236.367188 71.152344 C 234.535156 71.140625 228.820313 71.144531 226.242188 71.144531 C 225.863281 71.144531 225.550781 71.144531 225.335938 71.144531 C 225.328125 71.144531 225.324219 71.144531 225.320313 71.144531 C 225.152344 71.144531 225.015625 71.152344 224.886719 71.160156 C 224.859375 71.160156 224.835938 71.160156 224.808594 71.164063 C 224.808594 71.164063 224.804688 71.164063 224.804688 71.164063 C 224.773438 71.167969 224.734375 71.171875 224.691406 71.175781 C 224.6875 71.175781 224.6875 71.175781 224.6875 71.175781 C 224.679688 71.175781 224.675781 71.175781 224.667969 71.179688 C 224.605469 71.1875 224.535156 71.195313 224.46875 71.210938 C 224.457031 71.214844 224.441406 71.214844 224.429688 71.21875 C 224.425781 71.21875 224.425781 71.21875 224.421875 71.222656 C 224.414063 71.222656 224.40625 71.226563 224.398438 71.226563 C 224.394531 71.230469 224.390625 71.230469 224.386719 71.230469 C 224.375 71.234375 224.367188 71.238281 224.355469 71.238281 C 224.308594 71.257813 224.261719 71.277344 224.21875 71.300781 C 224.179688 71.320313 224.140625 71.347656 224.101563 71.378906 C 224.101563 71.378906 224.101563 71.378906 224.097656 71.378906 C 224.09375 71.382813 224.089844 71.386719 224.085938 71.390625 C 224.050781 71.417969 224.023438 71.445313 223.996094 71.476563 C 223.976563 71.496094 223.960938 71.519531 223.949219 71.539063 C 223.945313 71.542969 223.945313 71.542969 223.945313 71.542969 C 223.917969 71.585938 223.894531 71.628906 223.871094 71.675781 C 223.871094 71.675781 223.871094 71.679688 223.871094 71.679688 C 223.867188 71.683594 223.867188 71.691406 223.863281 71.695313 C 223.851563 71.726563 223.828125 71.792969 223.816406 71.867188 C 223.816406 71.871094 223.816406 71.878906 223.816406 71.882813 C 223.816406 71.882813 223.816406 71.882813 223.816406 71.886719 C 223.804688 71.960938 223.800781 72.027344 223.796875 72.054688 C 223.796875 72.058594 223.796875 72.0625 223.796875 72.0625 C 223.796875 72.066406 223.796875 72.066406 223.796875 72.070313 C 223.796875 72.105469 223.789063 72.152344 223.792969 72.191406 C 223.792969 72.195313 223.792969 72.195313 223.792969 72.199219 C 223.792969 72.335938 223.804688 72.492188 223.835938 72.65625 C 223.867188 72.875 223.921875 73.160156 223.992188 73.378906 C 223.992188 73.378906 223.992188 73.378906 223.992188 73.382813 C 224.613281 75.671875 227.824219 87.335938 230.804688 98.0625 C 230.820313 98.117188 230.839844 98.175781 230.851563 98.230469 C 233.5 107.765625 235.953125 116.632813 236.222656 117.445313 C 237.132813 120.203125 239.082031 122.472656 242.035156 122.496094 C 242.046875 122.460938 244.222656 114.570313 246.839844 105.082031 C 243.039063 91.289063 238.320313 74.113281 237.984375 72.761719 "/>
<path style=" stroke:none;fill-rule:nonzero;fill:rgb(13.299561%,19.198608%,23.899841%);fill-opacity:1;" d="M 270.097656 72.5 C 270.0625 72.359375 270.027344 72.234375 269.992188 72.121094 C 269.929688 71.914063 269.863281 71.753906 269.789063 71.625 C 269.777344 71.605469 269.769531 71.589844 269.757813 71.574219 C 269.753906 71.570313 269.753906 71.566406 269.75 71.5625 C 269.75 71.5625 269.75 71.5625 269.746094 71.5625 C 269.726563 71.53125 269.703125 71.503906 269.683594 71.476563 C 269.699219 71.496094 269.714844 71.519531 269.730469 71.539063 C 269.730469 71.542969 269.730469 71.542969 269.730469 71.542969 C 269.757813 71.585938 269.785156 71.628906 269.804688 71.675781 L 269.804688 71.679688 C 269.808594 71.683594 269.808594 71.691406 269.8125 71.695313 C 269.8125 71.695313 269.8125 71.695313 269.8125 71.699219 C 269.824219 71.730469 269.847656 71.792969 269.859375 71.867188 C 269.859375 71.871094 269.859375 71.878906 269.859375 71.882813 C 269.859375 71.882813 269.863281 71.882813 269.863281 71.886719 C 269.871094 71.960938 269.878906 72.027344 269.878906 72.054688 C 269.878906 72.058594 269.878906 72.0625 269.878906 72.0625 C 269.878906 72.066406 269.878906 72.066406 269.878906 72.070313 C 269.882813 72.105469 269.886719 72.152344 269.882813 72.191406 C 269.882813 72.195313 269.882813 72.195313 269.882813 72.199219 C 269.882813 72.335938 269.871094 72.492188 269.84375 72.65625 C 269.808594 72.875 269.753906 73.160156 269.683594 73.378906 C 269.683594 73.378906 269.683594 73.378906 269.683594 73.382813 C 269.066406 75.65625 265.894531 87.183594 262.929688 97.851563 C 262.949219 97.921875 262.96875 97.992188 262.988281 98.0625 C 263.007813 98.117188 263.023438 98.175781 263.039063 98.230469 C 265.6875 107.765625 268.140625 116.632813 268.410156 117.445313 C 269.320313 120.203125 271.265625 122.472656 274.21875 122.496094 C 274.226563 122.472656 275.230469 118.839844 276.691406 113.539063 C 277.269531 111.441406 277.917969 109.085938 278.605469 106.597656 C 278.738281 106.109375 278.875 105.617188 279.011719 105.117188 C 275.292969 91.707031 270.664063 74.804688 270.097656 72.5 "/>
<path style=" stroke:none;fill-rule:nonzero;fill:rgb(93.299866%,15.299988%,31.799316%);fill-opacity:1;" d="M 302.066406 72.070313 C 302.066406 72.066406 302.066406 72.066406 302.066406 72.0625 C 302.066406 72.0625 302.0625 72.058594 302.0625 72.054688 C 302.0625 72.027344 302.058594 71.960938 302.046875 71.886719 C 302.046875 71.882813 302.046875 71.882813 302.046875 71.882813 C 302.046875 71.878906 302.046875 71.871094 302.046875 71.867188 C 302.03125 71.792969 302.007813 71.726563 301.996094 71.695313 C 301.996094 71.691406 301.992188 71.683594 301.988281 71.679688 L 301.988281 71.675781 C 301.96875 71.628906 301.945313 71.585938 301.914063 71.542969 C 301.914063 71.542969 301.914063 71.542969 301.914063 71.539063 C 301.898438 71.519531 301.882813 71.496094 301.867188 71.476563 C 301.839844 71.445313 301.808594 71.417969 301.777344 71.390625 C 301.773438 71.386719 301.769531 71.382813 301.761719 71.378906 C 301.761719 71.378906 301.761719 71.378906 301.757813 71.378906 C 301.722656 71.347656 301.683594 71.320313 301.640625 71.300781 C 301.597656 71.277344 301.554688 71.257813 301.507813 71.238281 C 301.496094 71.238281 301.488281 71.234375 301.476563 71.230469 C 301.472656 71.230469 301.46875 71.230469 301.464844 71.226563 C 301.453125 71.226563 301.445313 71.222656 301.4375 71.222656 C 301.4375 71.21875 301.433594 71.21875 301.433594 71.21875 C 301.417969 71.214844 301.40625 71.214844 301.390625 71.210938 C 301.328125 71.195313 301.257813 71.1875 301.191406 71.179688 C 301.1875 71.175781 301.179688 71.175781 301.175781 71.175781 C 301.175781 71.175781 301.171875 71.175781 301.171875 71.175781 C 301.128906 71.171875 301.089844 71.167969 301.058594 71.164063 C 301.054688 71.164063 301.054688 71.164063 301.054688 71.164063 C 301.027344 71.160156 301.003906 71.160156 300.976563 71.160156 C 300.847656 71.152344 300.707031 71.144531 300.542969 71.144531 C 300.539063 71.144531 300.535156 71.144531 300.527344 71.144531 C 300.308594 71.144531 299.996094 71.144531 299.617188 71.144531 C 297.042969 71.144531 291.324219 71.140625 289.496094 71.152344 C 289.445313 71.152344 289.382813 71.152344 289.339844 71.152344 C 289.300781 71.152344 289.257813 71.152344 289.226563 71.15625 C 288.324219 71.210938 288.148438 71.679688 287.875 72.761719 C 287.542969 74.117188 282.8125 91.320313 279.011719 105.117188 C 278.875 105.617188 278.738281 106.109375 278.605469 106.597656 C 277.917969 109.09375 277.269531 111.445313 276.691406 113.539063 C 275.226563 118.855469 274.222656 122.496094 274.21875 122.496094 L 283.785156 122.496094 C 286.761719 122.496094 288.722656 120.214844 289.636719 117.445313 C 289.90625 116.632813 292.359375 107.765625 295.007813 98.230469 C 295.023438 98.175781 295.039063 98.117188 295.058594 98.0625 C 298.035156 87.335938 301.25 75.671875 301.867188 73.382813 C 301.871094 73.382813 301.871094 73.382813 301.871094 73.382813 C 301.871094 73.378906 301.871094 73.378906 301.871094 73.378906 C 301.941406 73.160156 301.992188 72.875 302.027344 72.65625 C 302.058594 72.492188 302.070313 72.335938 302.070313 72.199219 C 302.070313 72.195313 302.070313 72.195313 302.070313 72.191406 C 302.070313 72.152344 302.066406 72.105469 302.066406 72.070313 "/>
<path style=" stroke:none;fill-rule:nonzero;fill:rgb(93.299866%,15.299988%,31.799316%);fill-opacity:1;" d="M 269.878906 72.070313 C 269.878906 72.066406 269.878906 72.066406 269.878906 72.0625 C 269.878906 72.0625 269.878906 72.058594 269.878906 72.054688 C 269.878906 72.027344 269.871094 71.960938 269.863281 71.886719 C 269.863281 71.882813 269.859375 71.882813 269.859375 71.882813 C 269.859375 71.878906 269.859375 71.871094 269.859375 71.867188 C 269.847656 71.792969 269.824219 71.726563 269.8125 71.695313 C 269.808594 71.691406 269.808594 71.683594 269.804688 71.679688 L 269.804688 71.675781 C 269.785156 71.628906 269.757813 71.585938 269.730469 71.542969 C 269.730469 71.542969 269.730469 71.542969 269.730469 71.539063 C 269.714844 71.519531 269.699219 71.496094 269.683594 71.476563 C 269.652344 71.445313 269.625 71.417969 269.59375 71.390625 C 269.589844 71.386719 269.582031 71.382813 269.578125 71.378906 C 269.574219 71.378906 269.574219 71.378906 269.574219 71.378906 C 269.535156 71.347656 269.496094 71.320313 269.457031 71.300781 C 269.414063 71.277344 269.367188 71.257813 269.320313 71.238281 C 269.3125 71.238281 269.300781 71.234375 269.292969 71.230469 C 269.285156 71.230469 269.28125 71.230469 269.277344 71.226563 C 269.269531 71.226563 269.261719 71.222656 269.253906 71.222656 C 269.25 71.21875 269.25 71.21875 269.246094 71.21875 C 269.234375 71.214844 269.222656 71.214844 269.207031 71.210938 C 269.140625 71.195313 269.070313 71.1875 269.007813 71.179688 C 269 71.175781 268.996094 71.175781 268.988281 71.175781 C 268.988281 71.175781 268.988281 71.175781 268.984375 71.175781 C 268.945313 71.171875 268.90625 71.167969 268.871094 71.164063 C 268.871094 71.164063 268.871094 71.164063 268.867188 71.164063 C 268.84375 71.160156 268.816406 71.160156 268.789063 71.160156 C 268.660156 71.152344 268.523438 71.144531 268.355469 71.144531 C 268.351563 71.144531 268.347656 71.144531 268.34375 71.144531 C 268.125 71.144531 267.8125 71.144531 267.433594 71.144531 C 264.855469 71.144531 259.140625 71.140625 257.308594 71.152344 C 257.257813 71.152344 257.195313 71.152344 257.152344 71.152344 C 257.117188 71.152344 257.074219 71.152344 257.039063 71.15625 C 256.136719 71.210938 255.960938 71.679688 255.691406 72.761719 C 255.359375 74.113281 250.636719 91.289063 246.839844 105.082031 C 244.222656 114.570313 242.046875 122.460938 242.035156 122.496094 C 242.046875 122.496094 242.0625 122.496094 242.074219 122.496094 L 251.601563 122.496094 C 251.613281 122.496094 251.628906 122.496094 251.640625 122.496094 C 254.59375 122.472656 256.542969 120.203125 257.453125 117.445313 C 257.722656 116.632813 260.175781 107.765625 262.824219 98.230469 C 262.839844 98.175781 262.855469 98.117188 262.871094 98.0625 C 265.851563 87.335938 269.0625 75.671875 269.683594 73.382813 C 269.683594 73.378906 269.683594 73.378906 269.683594 73.378906 C 269.753906 73.160156 269.808594 72.875 269.84375 72.65625 C 269.871094 72.492188 269.882813 72.335938 269.882813 72.199219 C 269.882813 72.195313 269.882813 72.195313 269.882813 72.191406 C 269.886719 72.152344 269.882813 72.105469 269.878906 72.070313 "/>
</g>
</svg>
